<svg width="88" height="88" viewBox="0 0 88 88" fill="none" xmlns="http://www.w3.org/2000/svg">
<path d="M44 0C55.6695 0 66.8611 4.6357 75.1127 12.8873C83.3643 21.1389 88 32.3305 88 44C88 55.6695 83.3643 66.8611 75.1127 75.1127C66.8611 83.3643 55.6695 88 44 88C32.3305 88 21.1389 83.3643 12.8873 75.1127C4.6357 66.8611 0 55.6695 0 44C0 32.3305 4.6357 21.1389 12.8873 12.8873C21.1389 4.6357 32.3305 0 44 0ZM44 57.75C42.906 57.75 41.8568 58.1846 41.0832 58.9582C40.3096 59.7318 39.875 60.781 39.875 61.875C39.875 62.969 40.3096 64.0182 41.0832 64.7918C41.8568 65.5654 42.906 66 44 66C45.094 66 46.1432 65.5654 46.9168 64.7918C47.6904 64.0182 48.125 62.969 48.125 61.875C48.125 60.781 47.6904 59.7318 46.9168 58.9582C46.1432 58.1846 45.094 57.75 44 57.75ZM44 22C43.3564 21.9998 42.733 22.2253 42.2386 22.6374C41.7441 23.0494 41.4099 23.6219 41.294 24.255L41.25 24.75V49.5L41.294 49.995C41.4088 50.6291 41.7426 51.2027 42.2372 51.6157C42.7317 52.0288 43.3556 52.255 44 52.255C44.6444 52.255 45.2683 52.0288 45.7628 51.6157C46.2574 51.2027 46.5912 50.6291 46.706 49.995L46.75 49.5V24.75L46.706 24.255C46.5901 23.6219 46.2559 23.0494 45.7614 22.6374C45.267 22.2253 44.6436 21.9998 44 22Z" fill="#000"/>
</svg>
