<svg width="39" height="26" viewBox="0 0 39 26" fill="none" xmlns="http://www.w3.org/2000/svg">
<path d="M36.3334 10.8332H7.79835L14.0384 4.59323C14.4435 4.18811 14.6711 3.63865 14.6711 3.06573C14.6711 2.49281 14.4435 1.94335 14.0384 1.53823C13.6332 1.13311 13.0838 0.905518 12.5109 0.905518C11.9379 0.905518 11.3885 1.13311 10.9834 1.53823L1.03835 11.4832C0.837495 11.6837 0.678142 11.9218 0.569416 12.1839C0.460689 12.446 0.404724 12.727 0.404724 13.0107C0.404724 13.2945 0.460689 13.5755 0.569416 13.8376C0.678142 14.0997 0.837495 14.3378 1.03835 14.5382L10.9834 24.4832C11.1839 24.6838 11.4221 24.8429 11.6842 24.9515C11.9463 25.0601 12.2272 25.1159 12.5109 25.1159C12.7945 25.1159 13.0754 25.0601 13.3375 24.9515C13.5996 24.8429 13.8378 24.6838 14.0384 24.4832C14.2389 24.2826 14.3981 24.0445 14.5066 23.7824C14.6152 23.5203 14.6711 23.2394 14.6711 22.9557C14.6711 22.672 14.6152 22.3911 14.5066 22.1291C14.3981 21.867 14.2389 21.6288 14.0384 21.4282L7.79835 15.1666H36.3334C37.525 15.1666 38.5 14.1916 38.5 12.9999C38.5 11.8082 37.525 10.8332 36.3334 10.8332Z" fill="black"/>
</svg>
