<svg width="17" height="17" viewBox="0 0 17 17" fill="none" xmlns="http://www.w3.org/2000/svg">
<path d="M0 16.0469C0 16.4099 0.293262 16.7031 0.65625 16.7031H15.75C16.113 16.7031 16.4062 16.4099 16.4062 16.0469V7.43359H0V16.0469ZM15.75 1.77344H12.3047V0.460938C12.3047 0.370703 12.2309 0.296875 12.1406 0.296875H10.9922C10.902 0.296875 10.8281 0.370703 10.8281 0.460938V1.77344H5.57812V0.460938C5.57812 0.370703 5.5043 0.296875 5.41406 0.296875H4.26562C4.17539 0.296875 4.10156 0.370703 4.10156 0.460938V1.77344H0.65625C0.293262 1.77344 0 2.0667 0 2.42969V6.03906H16.4062V2.42969C16.4062 2.0667 16.113 1.77344 15.75 1.77344Z" fill="#000"/>
</svg>
