<svg width="176" height="138" viewBox="0 0 176 138" fill="none" xmlns="http://www.w3.org/2000/svg">
<path d="M88 100.25C101.807 100.25 113 89.0571 113 75.25C113 61.4429 101.807 50.25 88 50.25C74.1929 50.25 63 61.4429 63 75.25C63 89.0571 74.1929 100.25 88 100.25Z" fill="#000"/>
<path d="M166.125 25.25H133.703C132.531 25.25 131.078 24.4922 129.945 23.2969L119.289 6.57812C114.953 0.249999 113 0.25 105.969 0.25H70.0312C63 0.25 60.6562 0.25 56.7227 6.58203L46.0547 23.2969C45.1875 24.2422 43.9687 25.25 42.6875 25.25V19C42.6875 18.1712 42.3583 17.3763 41.7722 16.7903C41.1862 16.2042 40.3913 15.875 39.5625 15.875H23.9375C23.1087 15.875 22.3138 16.2042 21.7278 16.7903C21.1417 17.3763 20.8125 18.1712 20.8125 19V25.25H9.875C7.3886 25.25 5.00403 26.2377 3.24587 27.9959C1.48772 29.754 0.5 32.1386 0.5 34.625V128.375C0.5 130.861 1.48772 133.246 3.24587 135.004C5.00403 136.762 7.3886 137.75 9.875 137.75H166.125C168.611 137.75 170.996 136.762 172.754 135.004C174.512 133.246 175.5 130.861 175.5 128.375V34.625C175.5 32.1386 174.512 29.754 172.754 27.9959C170.996 26.2377 168.611 25.25 166.125 25.25ZM89.7617 112.711C82.2033 113.066 74.7143 111.126 68.2787 107.146C61.8431 103.166 56.762 97.3328 53.7031 90.4119C50.6441 83.491 49.7505 75.8066 51.1395 68.3684C52.5285 60.9302 56.1352 54.0862 61.4857 48.7357C66.8362 43.3852 73.6802 39.7785 81.1184 38.3895C88.5566 37.0005 96.241 37.8941 103.162 40.9531C110.083 44.012 115.916 49.0931 119.896 55.5287C123.876 61.9643 125.816 69.4533 125.461 77.0117C125.013 86.3353 121.108 95.1577 114.508 101.758C107.908 108.358 99.0853 112.263 89.7617 112.711Z" fill="#000"/>
</svg>
