<svg width="88" height="88" viewBox="0 0 88 88" fill="none" xmlns="http://www.w3.org/2000/svg">
<path d="M44 0C55.6695 0 66.8611 4.6357 75.1127 12.8873C83.3643 21.1389 88 32.3305 88 44C88 55.6695 83.3643 66.8611 75.1127 75.1127C66.8611 83.3643 55.6695 88 44 88C32.3305 88 21.1389 83.3643 12.8873 75.1127C4.6357 66.8611 0 55.6695 0 44C0 32.3305 4.6357 21.1389 12.8873 12.8873C21.1389 4.6357 32.3305 0 44 0ZM44 38.6634L33.7794 28.4429C33.0718 27.7352 32.1119 27.3376 31.1111 27.3376C30.1103 27.3376 29.1505 27.7352 28.4429 28.4429C27.7352 29.1505 27.3376 30.1103 27.3376 31.1111C27.3376 32.1119 27.7352 33.0718 28.4429 33.7794L38.6634 44L28.4429 54.2206C28.0925 54.571 27.8145 54.987 27.6249 55.4448C27.4352 55.9026 27.3376 56.3933 27.3376 56.8889C27.3376 57.3844 27.4352 57.8751 27.6249 58.3329C27.8145 58.7907 28.0925 59.2067 28.4429 59.5571C28.7933 59.9075 29.2092 60.1855 29.6671 60.3751C30.1249 60.5648 30.6156 60.6624 31.1111 60.6624C31.6067 60.6624 32.0974 60.5648 32.5552 60.3751C33.013 60.1855 33.429 59.9075 33.7794 59.5571L44 49.3366L54.2206 59.5571C54.571 59.9075 54.987 60.1855 55.4448 60.3751C55.9026 60.5648 56.3933 60.6624 56.8889 60.6624C57.3844 60.6624 57.8751 60.5648 58.3329 60.3751C58.7907 60.1855 59.2067 59.9075 59.5571 59.5571C59.9075 59.2067 60.1855 58.7907 60.3751 58.3329C60.5648 57.8751 60.6624 57.3844 60.6624 56.8889C60.6624 56.3933 60.5648 55.9026 60.3751 55.4448C60.1855 54.987 59.9075 54.571 59.5571 54.2206L49.3366 44L59.5571 33.7794C59.9075 33.429 60.1855 33.013 60.3751 32.5552C60.5648 32.0974 60.6624 31.6067 60.6624 31.1111C60.6624 30.6156 60.5648 30.1249 60.3751 29.6671C60.1855 29.2092 59.9075 28.7933 59.5571 28.4429C59.2067 28.0925 58.7907 27.8145 58.3329 27.6249C57.8751 27.4352 57.3844 27.3376 56.8889 27.3376C56.3933 27.3376 55.9026 27.4352 55.4448 27.6249C54.987 27.8145 54.571 28.0925 54.2206 28.4429L44 38.6634Z" fill="#000"/>
</svg>
