<svg width="35" height="29" viewBox="0 0 35 29" fill="none" xmlns="http://www.w3.org/2000/svg">
<path d="M35 8.40997C34.4167 3.62497 30.4792 -3.05176e-05 25.5208 -3.05176e-05C23.0417 -3.05176e-05 20.5625 1.01497 18.8125 2.75497C17.7917 3.76997 17.0625 4.78497 16.625 6.08997L24.7917 11.455V11.6H29.1667V14.5H24.7917V17.4H29.1667V20.3H24.7917V23.2H29.1667V26.1H24.7917V29H35V8.40997ZM19.3958 7.24997C20.2708 4.63997 22.75 2.89997 25.5208 2.89997C28.2917 2.89997 30.7708 4.63997 31.6458 7.24997H19.3958ZM0 13.05V29H7.29167V18.85H14.5833V29H21.875V13.05L10.9375 5.79997L0 13.05Z" fill="black"/>
</svg>
