<svg width="20" height="19" viewBox="0 0 20 19" fill="none" xmlns="http://www.w3.org/2000/svg">
<path d="M19.5487 6.18242C19.6747 6.50527 19.5684 6.86523 19.2967 7.09531L17.5919 8.55742C17.6352 8.86543 17.6589 9.18086 17.6589 9.5C17.6589 9.81914 17.6352 10.1346 17.5919 10.4426L19.2967 11.9047C19.5684 12.1348 19.6747 12.4947 19.5487 12.8176C19.3755 13.2592 19.1668 13.6822 18.9266 14.0904L18.7416 14.391C18.4817 14.7992 18.1904 15.1852 17.8715 15.5488C17.6392 15.816 17.2533 15.9051 16.9068 15.8012L14.7138 15.1443C14.1862 15.5266 13.6035 15.8457 12.9814 16.0869L12.4893 18.2059C12.4106 18.5436 12.1349 18.8107 11.7727 18.8664C11.2294 18.9518 10.6703 18.9963 10.0994 18.9963C9.52852 18.9963 8.96943 18.9518 8.4261 18.8664C8.06387 18.8107 7.78827 18.5436 7.70953 18.2059L7.21737 16.0869C6.5953 15.8457 6.01259 15.5266 5.485 15.1443L3.29592 15.8049C2.94944 15.9088 2.5636 15.816 2.3313 15.5525C2.01239 15.1889 1.72103 14.8029 1.46118 14.3947L1.27613 14.0941C1.03596 13.6859 0.827287 13.2629 0.65405 12.8213C0.528059 12.4984 0.634364 12.1385 0.906031 11.9084L2.61084 10.4463C2.56753 10.1346 2.54391 9.81914 2.54391 9.5C2.54391 9.18086 2.56753 8.86543 2.61084 8.55742L0.906031 7.09531C0.634364 6.86523 0.528059 6.50527 0.65405 6.18242C0.827287 5.74082 1.03596 5.31777 1.27613 4.90957L1.46118 4.60898C1.72103 4.20078 2.01239 3.81484 2.3313 3.45117C2.5636 3.18398 2.94944 3.09492 3.29592 3.19883L5.48894 3.85566C6.01653 3.47344 6.59923 3.1543 7.22131 2.91309L7.71346 0.794141C7.79221 0.456445 8.06781 0.189258 8.43004 0.133594C8.97337 0.0445312 9.53245 0 10.1033 0C10.6742 0 11.2333 0.0445313 11.7767 0.129883C12.1389 0.185547 12.4145 0.452734 12.4932 0.79043L12.9854 2.90938C13.6075 3.15059 14.1902 3.46973 14.7178 3.85195L16.9108 3.19512C17.2573 3.09121 17.6431 3.18398 17.8754 3.44746C18.1943 3.81113 18.4857 4.19707 18.7455 4.60527L18.9306 4.90586C19.1707 5.31406 19.3794 5.73711 19.5526 6.17871L19.5487 6.18242ZM10.1033 12.4688C11.8436 12.4688 13.2531 11.1402 13.2531 9.5C13.2531 7.85977 11.8436 6.53125 10.1033 6.53125C8.3631 6.53125 6.95358 7.85977 6.95358 9.5C6.95358 11.1402 8.3631 12.4688 10.1033 12.4688Z" fill="white"/>
</svg>
