<svg width="414" height="376" viewBox="0 0 414 376" fill="none" xmlns="http://www.w3.org/2000/svg">
<path d="M167 0.5C74.9168 0.5 0.333496 37.7917 0.333496 83.8333C0.333496 129.875 74.9168 167.167 167 167.167C177.417 167.167 187.834 166.542 198.25 165.5V135.917H258.458L237.625 115.083L310.75 42.1667C281.583 17.1667 228.25 0.5 167 0.5ZM311.167 85.5L281.584 115.083L333.667 167.167H229.5V208.833H333.667L281.584 260.917L311.167 290.5L413.667 188M0.333496 125.5V188C0.333496 234.042 74.9168 271.333 167 271.333C191.375 271.333 214.084 268.208 234.709 263.625L258.25 240.083H198.25V207.167C187.834 208.208 177.417 208.833 167 208.833C74.9168 208.833 0.333496 171.542 0.333496 125.5ZM0.333496 229.667V292.167C0.333496 338.208 74.9168 375.5 167 375.5C228.25 375.5 281.583 358.833 310.75 333.833L271.167 294.25C242.209 305.917 206.584 313 167 313C74.9168 313 0.333496 275.708 0.333496 229.667Z" fill="#000"/>
</svg>
