<svg width="40" height="40" viewBox="0 0 40 40" fill="none" xmlns="http://www.w3.org/2000/svg">
<mask id="path-1-outside-1_59_132" maskUnits="userSpaceOnUse" x="3.0625" y="3.0625" width="34" height="33" fill="black">
<rect fill="white" x="3.0625" y="3.0625" width="34" height="33"/>
<path d="M31.25 24.0625C30.1323 24.0596 29.0508 24.4589 28.2031 25.1875L24.2031 22.0781C24.5244 21.4326 24.6902 20.721 24.6875 20C24.6875 19.8125 24.6719 19.625 24.6563 19.4375L27.1875 18.5937C27.7549 19.5794 28.6612 20.3251 29.7377 20.692C30.8141 21.059 31.9872 21.022 33.0385 20.5881C34.0897 20.1542 34.9473 19.3529 35.4516 18.3336C35.9558 17.3142 36.0723 16.1463 35.7792 15.0474C35.4862 13.9485 34.8037 12.9937 33.8588 12.3608C32.914 11.7278 31.7712 11.46 30.6435 11.6071C29.5158 11.7542 28.4801 12.3063 27.7293 13.1605C26.9784 14.0147 26.5638 15.1127 26.5625 16.25C26.5625 16.4375 26.5781 16.625 26.5938 16.8125L24.0625 17.6562C23.6508 16.9432 23.0586 16.3512 22.3455 15.9397C21.6323 15.5283 20.8233 15.312 20 15.3125C19.6584 15.3093 19.3175 15.346 18.9844 15.4219L17.7188 12.5625C18.628 11.9121 19.2749 10.9581 19.5426 9.87265C19.8104 8.78723 19.6814 7.64186 19.1789 6.64318C18.6764 5.6445 17.8336 4.8583 16.8024 4.42641C15.7713 3.99452 14.6197 3.9454 13.5555 4.2879C12.4913 4.6304 11.5845 5.34197 10.9988 6.29423C10.4131 7.24649 10.1871 8.37672 10.3614 9.481C10.5358 10.5853 11.099 11.5909 11.9496 12.3164C12.8002 13.0419 13.882 13.4395 15 13.4375C15.3416 13.4407 15.6825 13.404 16.0156 13.3281L17.2813 16.1875C16.6724 16.6194 16.1758 17.191 15.8333 17.8544C15.4908 18.5177 15.3122 19.2534 15.3125 20C15.311 20.8247 15.5324 21.6345 15.9531 22.3437L11.5625 26.25C10.7527 25.6384 9.76479 25.3091 8.75 25.3125C7.8229 25.3125 6.91662 25.5874 6.14577 26.1025C5.37491 26.6175 4.7741 27.3496 4.41932 28.2062C4.06453 29.0627 3.9717 30.0052 4.15257 30.9145C4.33344 31.8238 4.77988 32.659 5.43544 33.3146C6.091 33.9701 6.92623 34.4166 7.83552 34.5974C8.7448 34.7783 9.6873 34.6855 10.5438 34.3307C11.4004 33.9759 12.1324 33.3751 12.6475 32.6042C13.1626 31.8334 13.4375 30.9271 13.4375 30C13.439 29.1753 13.2176 28.3655 12.7969 27.6562L17.1875 23.75C18.04 24.3894 19.085 24.7193 20.1501 24.6852C21.2153 24.6512 22.237 24.2551 23.0469 23.5625L27.0469 26.6719C26.7256 27.3174 26.5598 28.029 26.5625 28.75C26.5625 29.6771 26.8374 30.5834 27.3525 31.3542C27.8676 32.1251 28.5996 32.7259 29.4562 33.0807C30.3127 33.4355 31.2552 33.5283 32.1645 33.3474C33.0738 33.1666 33.909 32.7201 34.5646 32.0646C35.2201 31.409 35.6666 30.5738 35.8474 29.6645C36.0283 28.7552 35.9355 27.8127 35.5807 26.9562C35.2259 26.0996 34.6251 25.3675 33.8542 24.8525C33.0834 24.3374 32.1771 24.0625 31.25 24.0625V24.0625ZM31.25 13.4375C31.8063 13.4375 32.35 13.6024 32.8125 13.9115C33.2751 14.2205 33.6355 14.6598 33.8484 15.1737C34.0613 15.6876 34.117 16.2531 34.0085 16.7987C33.8999 17.3443 33.6321 17.8454 33.2387 18.2387C32.8454 18.6321 32.3443 18.8999 31.7987 19.0085C31.2531 19.117 30.6876 19.0613 30.1737 18.8484C29.6598 18.6355 29.2205 18.275 28.9115 17.8125C28.6025 17.35 28.4375 16.8063 28.4375 16.25C28.4416 15.5053 28.7392 14.7923 29.2658 14.2658C29.7924 13.7392 30.5053 13.4416 31.25 13.4375V13.4375ZM12.1875 8.74999C12.1875 8.19373 12.3525 7.64997 12.6615 7.18745C12.9705 6.72494 13.4098 6.36445 13.9237 6.15158C14.4376 5.93871 15.0031 5.88301 15.5487 5.99153C16.0943 6.10006 16.5954 6.36792 16.9887 6.76126C17.3821 7.15459 17.6499 7.65573 17.7585 8.2013C17.867 8.74687 17.8113 9.31237 17.5984 9.82629C17.3855 10.3402 17.0251 10.7795 16.5625 11.0885C16.1 11.3975 15.5563 11.5625 15 11.5625C14.2553 11.5584 13.5424 11.2608 13.0158 10.7342C12.4892 10.2076 12.1916 9.49465 12.1875 8.74999V8.74999ZM8.75 32.8125C8.19374 32.8125 7.64997 32.6475 7.18746 32.3385C6.72495 32.0295 6.36446 31.5902 6.15159 31.0763C5.93872 30.5624 5.88302 29.9969 5.99154 29.4513C6.10006 28.9057 6.36793 28.4046 6.76126 28.0113C7.1546 27.6179 7.65574 27.3501 8.20131 27.2415C8.74688 27.133 9.31238 27.1887 9.8263 27.4016C10.3402 27.6145 10.7795 27.9749 11.0885 28.4375C11.3976 28.9 11.5625 29.4437 11.5625 30C11.5584 30.7446 11.2608 31.4576 10.7342 31.9842C10.2076 32.5108 9.49466 32.8084 8.75 32.8125V32.8125ZM20 22.8125C19.4437 22.8125 18.9 22.6475 18.4375 22.3385C17.9749 22.0295 17.6145 21.5902 17.4016 21.0763C17.1887 20.5624 17.133 19.9969 17.2415 19.4513C17.3501 18.9057 17.6179 18.4046 18.0113 18.0113C18.4046 17.6179 18.9057 17.3501 19.4513 17.2415C19.9969 17.133 20.5624 17.1887 21.0763 17.4016C21.5902 17.6145 22.0295 17.9749 22.3385 18.4375C22.6476 18.9 22.8125 19.4437 22.8125 20C22.8084 20.7446 22.5108 21.4576 21.9842 21.9842C21.4576 22.5108 20.7447 22.8084 20 22.8125ZM31.25 31.5625C30.6937 31.5625 30.15 31.3975 29.6875 31.0885C29.2249 30.7795 28.8645 30.3402 28.6516 29.8263C28.4387 29.3124 28.383 28.7469 28.4915 28.2013C28.6001 27.6557 28.8679 27.1546 29.2613 26.7613C29.6546 26.3679 30.1557 26.1001 30.7013 25.9915C31.2469 25.883 31.8124 25.9387 32.3263 26.1516C32.8402 26.3645 33.2795 26.7249 33.5885 27.1875C33.8976 27.65 34.0625 28.1937 34.0625 28.75C34.0584 29.4946 33.7608 30.2076 33.2342 30.7342C32.7076 31.2608 31.9947 31.5584 31.25 31.5625V31.5625Z"/>
</mask>
<path d="M31.25 24.0625C30.1323 24.0596 29.0508 24.4589 28.2031 25.1875L24.2031 22.0781C24.5244 21.4326 24.6902 20.721 24.6875 20C24.6875 19.8125 24.6719 19.625 24.6563 19.4375L27.1875 18.5937C27.7549 19.5794 28.6612 20.3251 29.7377 20.692C30.8141 21.059 31.9872 21.022 33.0385 20.5881C34.0897 20.1542 34.9473 19.3529 35.4516 18.3336C35.9558 17.3142 36.0723 16.1463 35.7792 15.0474C35.4862 13.9485 34.8037 12.9937 33.8588 12.3608C32.914 11.7278 31.7712 11.46 30.6435 11.6071C29.5158 11.7542 28.4801 12.3063 27.7293 13.1605C26.9784 14.0147 26.5638 15.1127 26.5625 16.25C26.5625 16.4375 26.5781 16.625 26.5938 16.8125L24.0625 17.6562C23.6508 16.9432 23.0586 16.3512 22.3455 15.9397C21.6323 15.5283 20.8233 15.312 20 15.3125C19.6584 15.3093 19.3175 15.346 18.9844 15.4219L17.7188 12.5625C18.628 11.9121 19.2749 10.9581 19.5426 9.87265C19.8104 8.78723 19.6814 7.64186 19.1789 6.64318C18.6764 5.6445 17.8336 4.8583 16.8024 4.42641C15.7713 3.99452 14.6197 3.9454 13.5555 4.2879C12.4913 4.6304 11.5845 5.34197 10.9988 6.29423C10.4131 7.24649 10.1871 8.37672 10.3614 9.481C10.5358 10.5853 11.099 11.5909 11.9496 12.3164C12.8002 13.0419 13.882 13.4395 15 13.4375C15.3416 13.4407 15.6825 13.404 16.0156 13.3281L17.2813 16.1875C16.6724 16.6194 16.1758 17.191 15.8333 17.8544C15.4908 18.5177 15.3122 19.2534 15.3125 20C15.311 20.8247 15.5324 21.6345 15.9531 22.3437L11.5625 26.25C10.7527 25.6384 9.76479 25.3091 8.75 25.3125C7.8229 25.3125 6.91662 25.5874 6.14577 26.1025C5.37491 26.6175 4.7741 27.3496 4.41932 28.2062C4.06453 29.0627 3.9717 30.0052 4.15257 30.9145C4.33344 31.8238 4.77988 32.659 5.43544 33.3146C6.091 33.9701 6.92623 34.4166 7.83552 34.5974C8.7448 34.7783 9.6873 34.6855 10.5438 34.3307C11.4004 33.9759 12.1324 33.3751 12.6475 32.6042C13.1626 31.8334 13.4375 30.9271 13.4375 30C13.439 29.1753 13.2176 28.3655 12.7969 27.6562L17.1875 23.75C18.04 24.3894 19.085 24.7193 20.1501 24.6852C21.2153 24.6512 22.237 24.2551 23.0469 23.5625L27.0469 26.6719C26.7256 27.3174 26.5598 28.029 26.5625 28.75C26.5625 29.6771 26.8374 30.5834 27.3525 31.3542C27.8676 32.1251 28.5996 32.7259 29.4562 33.0807C30.3127 33.4355 31.2552 33.5283 32.1645 33.3474C33.0738 33.1666 33.909 32.7201 34.5646 32.0646C35.2201 31.409 35.6666 30.5738 35.8474 29.6645C36.0283 28.7552 35.9355 27.8127 35.5807 26.9562C35.2259 26.0996 34.6251 25.3675 33.8542 24.8525C33.0834 24.3374 32.1771 24.0625 31.25 24.0625V24.0625ZM31.25 13.4375C31.8063 13.4375 32.35 13.6024 32.8125 13.9115C33.2751 14.2205 33.6355 14.6598 33.8484 15.1737C34.0613 15.6876 34.117 16.2531 34.0085 16.7987C33.8999 17.3443 33.6321 17.8454 33.2387 18.2387C32.8454 18.6321 32.3443 18.8999 31.7987 19.0085C31.2531 19.117 30.6876 19.0613 30.1737 18.8484C29.6598 18.6355 29.2205 18.275 28.9115 17.8125C28.6025 17.35 28.4375 16.8063 28.4375 16.25C28.4416 15.5053 28.7392 14.7923 29.2658 14.2658C29.7924 13.7392 30.5053 13.4416 31.25 13.4375V13.4375ZM12.1875 8.74999C12.1875 8.19373 12.3525 7.64997 12.6615 7.18745C12.9705 6.72494 13.4098 6.36445 13.9237 6.15158C14.4376 5.93871 15.0031 5.88301 15.5487 5.99153C16.0943 6.10006 16.5954 6.36792 16.9887 6.76126C17.3821 7.15459 17.6499 7.65573 17.7585 8.2013C17.867 8.74687 17.8113 9.31237 17.5984 9.82629C17.3855 10.3402 17.0251 10.7795 16.5625 11.0885C16.1 11.3975 15.5563 11.5625 15 11.5625C14.2553 11.5584 13.5424 11.2608 13.0158 10.7342C12.4892 10.2076 12.1916 9.49465 12.1875 8.74999V8.74999ZM8.75 32.8125C8.19374 32.8125 7.64997 32.6475 7.18746 32.3385C6.72495 32.0295 6.36446 31.5902 6.15159 31.0763C5.93872 30.5624 5.88302 29.9969 5.99154 29.4513C6.10006 28.9057 6.36793 28.4046 6.76126 28.0113C7.1546 27.6179 7.65574 27.3501 8.20131 27.2415C8.74688 27.133 9.31238 27.1887 9.8263 27.4016C10.3402 27.6145 10.7795 27.9749 11.0885 28.4375C11.3976 28.9 11.5625 29.4437 11.5625 30C11.5584 30.7446 11.2608 31.4576 10.7342 31.9842C10.2076 32.5108 9.49466 32.8084 8.75 32.8125V32.8125ZM20 22.8125C19.4437 22.8125 18.9 22.6475 18.4375 22.3385C17.9749 22.0295 17.6145 21.5902 17.4016 21.0763C17.1887 20.5624 17.133 19.9969 17.2415 19.4513C17.3501 18.9057 17.6179 18.4046 18.0113 18.0113C18.4046 17.6179 18.9057 17.3501 19.4513 17.2415C19.9969 17.133 20.5624 17.1887 21.0763 17.4016C21.5902 17.6145 22.0295 17.9749 22.3385 18.4375C22.6476 18.9 22.8125 19.4437 22.8125 20C22.8084 20.7446 22.5108 21.4576 21.9842 21.9842C21.4576 22.5108 20.7447 22.8084 20 22.8125ZM31.25 31.5625C30.6937 31.5625 30.15 31.3975 29.6875 31.0885C29.2249 30.7795 28.8645 30.3402 28.6516 29.8263C28.4387 29.3124 28.383 28.7469 28.4915 28.2013C28.6001 27.6557 28.8679 27.1546 29.2613 26.7613C29.6546 26.3679 30.1557 26.1001 30.7013 25.9915C31.2469 25.883 31.8124 25.9387 32.3263 26.1516C32.8402 26.3645 33.2795 26.7249 33.5885 27.1875C33.8976 27.65 34.0625 28.1937 34.0625 28.75C34.0584 29.4946 33.7608 30.2076 33.2342 30.7342C32.7076 31.2608 31.9947 31.5584 31.25 31.5625V31.5625Z" fill="#000"/>
<path d="M31.25 24.0625C30.1323 24.0596 29.0508 24.4589 28.2031 25.1875L24.2031 22.0781C24.5244 21.4326 24.6902 20.721 24.6875 20C24.6875 19.8125 24.6719 19.625 24.6563 19.4375L27.1875 18.5937C27.7549 19.5794 28.6612 20.3251 29.7377 20.692C30.8141 21.059 31.9872 21.022 33.0385 20.5881C34.0897 20.1542 34.9473 19.3529 35.4516 18.3336C35.9558 17.3142 36.0723 16.1463 35.7792 15.0474C35.4862 13.9485 34.8037 12.9937 33.8588 12.3608C32.914 11.7278 31.7712 11.46 30.6435 11.6071C29.5158 11.7542 28.4801 12.3063 27.7293 13.1605C26.9784 14.0147 26.5638 15.1127 26.5625 16.25C26.5625 16.4375 26.5781 16.625 26.5938 16.8125L24.0625 17.6562C23.6508 16.9432 23.0586 16.3512 22.3455 15.9397C21.6323 15.5283 20.8233 15.312 20 15.3125C19.6584 15.3093 19.3175 15.346 18.9844 15.4219L17.7188 12.5625C18.628 11.9121 19.2749 10.9581 19.5426 9.87265C19.8104 8.78723 19.6814 7.64186 19.1789 6.64318C18.6764 5.6445 17.8336 4.8583 16.8024 4.42641C15.7713 3.99452 14.6197 3.9454 13.5555 4.2879C12.4913 4.6304 11.5845 5.34197 10.9988 6.29423C10.4131 7.24649 10.1871 8.37672 10.3614 9.481C10.5358 10.5853 11.099 11.5909 11.9496 12.3164C12.8002 13.0419 13.882 13.4395 15 13.4375C15.3416 13.4407 15.6825 13.404 16.0156 13.3281L17.2813 16.1875C16.6724 16.6194 16.1758 17.191 15.8333 17.8544C15.4908 18.5177 15.3122 19.2534 15.3125 20C15.311 20.8247 15.5324 21.6345 15.9531 22.3437L11.5625 26.25C10.7527 25.6384 9.76479 25.3091 8.75 25.3125C7.8229 25.3125 6.91662 25.5874 6.14577 26.1025C5.37491 26.6175 4.7741 27.3496 4.41932 28.2062C4.06453 29.0627 3.9717 30.0052 4.15257 30.9145C4.33344 31.8238 4.77988 32.659 5.43544 33.3146C6.091 33.9701 6.92623 34.4166 7.83552 34.5974C8.7448 34.7783 9.6873 34.6855 10.5438 34.3307C11.4004 33.9759 12.1324 33.3751 12.6475 32.6042C13.1626 31.8334 13.4375 30.9271 13.4375 30C13.439 29.1753 13.2176 28.3655 12.7969 27.6562L17.1875 23.75C18.04 24.3894 19.085 24.7193 20.1501 24.6852C21.2153 24.6512 22.237 24.2551 23.0469 23.5625L27.0469 26.6719C26.7256 27.3174 26.5598 28.029 26.5625 28.75C26.5625 29.6771 26.8374 30.5834 27.3525 31.3542C27.8676 32.1251 28.5996 32.7259 29.4562 33.0807C30.3127 33.4355 31.2552 33.5283 32.1645 33.3474C33.0738 33.1666 33.909 32.7201 34.5646 32.0646C35.2201 31.409 35.6666 30.5738 35.8474 29.6645C36.0283 28.7552 35.9355 27.8127 35.5807 26.9562C35.2259 26.0996 34.6251 25.3675 33.8542 24.8525C33.0834 24.3374 32.1771 24.0625 31.25 24.0625V24.0625ZM31.25 13.4375C31.8063 13.4375 32.35 13.6024 32.8125 13.9115C33.2751 14.2205 33.6355 14.6598 33.8484 15.1737C34.0613 15.6876 34.117 16.2531 34.0085 16.7987C33.8999 17.3443 33.6321 17.8454 33.2387 18.2387C32.8454 18.6321 32.3443 18.8999 31.7987 19.0085C31.2531 19.117 30.6876 19.0613 30.1737 18.8484C29.6598 18.6355 29.2205 18.275 28.9115 17.8125C28.6025 17.35 28.4375 16.8063 28.4375 16.25C28.4416 15.5053 28.7392 14.7923 29.2658 14.2658C29.7924 13.7392 30.5053 13.4416 31.25 13.4375V13.4375ZM12.1875 8.74999C12.1875 8.19373 12.3525 7.64997 12.6615 7.18745C12.9705 6.72494 13.4098 6.36445 13.9237 6.15158C14.4376 5.93871 15.0031 5.88301 15.5487 5.99153C16.0943 6.10006 16.5954 6.36792 16.9887 6.76126C17.3821 7.15459 17.6499 7.65573 17.7585 8.2013C17.867 8.74687 17.8113 9.31237 17.5984 9.82629C17.3855 10.3402 17.0251 10.7795 16.5625 11.0885C16.1 11.3975 15.5563 11.5625 15 11.5625C14.2553 11.5584 13.5424 11.2608 13.0158 10.7342C12.4892 10.2076 12.1916 9.49465 12.1875 8.74999V8.74999ZM8.75 32.8125C8.19374 32.8125 7.64997 32.6475 7.18746 32.3385C6.72495 32.0295 6.36446 31.5902 6.15159 31.0763C5.93872 30.5624 5.88302 29.9969 5.99154 29.4513C6.10006 28.9057 6.36793 28.4046 6.76126 28.0113C7.1546 27.6179 7.65574 27.3501 8.20131 27.2415C8.74688 27.133 9.31238 27.1887 9.8263 27.4016C10.3402 27.6145 10.7795 27.9749 11.0885 28.4375C11.3976 28.9 11.5625 29.4437 11.5625 30C11.5584 30.7446 11.2608 31.4576 10.7342 31.9842C10.2076 32.5108 9.49466 32.8084 8.75 32.8125V32.8125ZM20 22.8125C19.4437 22.8125 18.9 22.6475 18.4375 22.3385C17.9749 22.0295 17.6145 21.5902 17.4016 21.0763C17.1887 20.5624 17.133 19.9969 17.2415 19.4513C17.3501 18.9057 17.6179 18.4046 18.0113 18.0113C18.4046 17.6179 18.9057 17.3501 19.4513 17.2415C19.9969 17.133 20.5624 17.1887 21.0763 17.4016C21.5902 17.6145 22.0295 17.9749 22.3385 18.4375C22.6476 18.9 22.8125 19.4437 22.8125 20C22.8084 20.7446 22.5108 21.4576 21.9842 21.9842C21.4576 22.5108 20.7447 22.8084 20 22.8125ZM31.25 31.5625C30.6937 31.5625 30.15 31.3975 29.6875 31.0885C29.2249 30.7795 28.8645 30.3402 28.6516 29.8263C28.4387 29.3124 28.383 28.7469 28.4915 28.2013C28.6001 27.6557 28.8679 27.1546 29.2613 26.7613C29.6546 26.3679 30.1557 26.1001 30.7013 25.9915C31.2469 25.883 31.8124 25.9387 32.3263 26.1516C32.8402 26.3645 33.2795 26.7249 33.5885 27.1875C33.8976 27.65 34.0625 28.1937 34.0625 28.75C34.0584 29.4946 33.7608 30.2076 33.2342 30.7342C32.7076 31.2608 31.9947 31.5584 31.25 31.5625V31.5625Z" stroke="#000" stroke-width="2" mask="url(#path-1-outside-1_59_132)"/>
</svg>
