<svg width="19" height="23" viewBox="0 0 19 23" fill="none" xmlns="http://www.w3.org/2000/svg">
<path d="M18.6755 0.122188C18.7753 0.187791 18.857 0.276531 18.9136 0.380572C18.9702 0.484614 18.9999 0.600758 19 0.71875V11.5C19 11.6435 18.9562 11.7838 18.8744 11.9027C18.7927 12.0215 18.6765 12.1136 18.5411 12.167L18.2692 11.5L18.5411 12.167L18.5367 12.1684L18.5279 12.1728L18.4943 12.1857C18.3022 12.2608 18.1087 12.3327 17.9141 12.4013C17.5282 12.5379 16.9918 12.7219 16.3838 12.9044C15.1912 13.2667 13.6376 13.6562 12.4231 13.6562C11.1852 13.6562 10.1606 13.2538 9.26908 12.9016L9.22815 12.8872C8.30154 12.5206 7.51231 12.2188 6.57692 12.2188C5.55385 12.2188 4.18292 12.5494 3.01515 12.9044C2.4923 13.0647 1.97421 13.2397 1.46154 13.4291V22.2812C1.46154 22.4719 1.38455 22.6547 1.2475 22.7895C1.11046 22.9243 0.924581 23 0.730769 23C0.536957 23 0.351083 22.9243 0.214037 22.7895C0.0769917 22.6547 0 22.4719 0 22.2812V0.71875C0 0.528126 0.0769917 0.345309 0.214037 0.210517C0.351083 0.0757252 0.536957 0 0.730769 0C0.924581 0 1.11046 0.0757252 1.2475 0.210517C1.38455 0.345309 1.46154 0.528126 1.46154 0.71875V1.12413C1.79185 1.01056 2.18646 0.87975 2.61615 0.750375C3.80877 0.391 5.36385 0 6.57692 0C7.80462 0 8.80431 0.398187 9.67685 0.746063L9.73969 0.771937C10.6488 1.13275 11.4409 1.4375 12.4231 1.4375C13.4462 1.4375 14.8171 1.10687 15.9848 0.751813C16.6503 0.547418 17.3079 0.319182 17.9565 0.0675625L17.9842 0.0575L17.9901 0.054625H17.9915" fill="white"/>
</svg>
