<svg width="100" height="168" viewBox="0 0 100 168" fill="none" xmlns="http://www.w3.org/2000/svg">
<path d="M33.3333 167.333C28.75 167.333 24.825 165.7 21.5583 162.433C18.2917 159.167 16.6611 155.244 16.6667 150.667V75.6666L0 50.6666V42.3333H100V50.6666L83.3333 75.6666V150.667C83.3333 155.25 81.7 159.175 78.4333 162.442C75.1667 165.708 71.2444 167.339 66.6667 167.333H33.3333ZM50 113.167C53.4722 113.167 56.425 111.95 58.8583 109.517C61.2917 107.083 62.5056 104.133 62.5 100.667C62.5 97.1944 61.2833 94.2416 58.85 91.8083C56.4167 89.375 53.4667 88.1611 50 88.1666C46.5278 88.1666 43.575 89.3833 41.1417 91.8166C38.7083 94.25 37.4944 97.2 37.5 100.667C37.5 104.139 38.7167 107.092 41.15 109.525C43.5833 111.958 46.5333 113.172 50 113.167ZM0 25.6666V17.3333C0 12.75 1.63333 8.82497 4.9 5.55831C8.16666 2.29164 12.0889 0.661085 16.6667 0.66664H83.3333C87.9167 0.66664 91.8417 2.29997 95.1083 5.56664C98.375 8.83331 100.006 12.7555 100 17.3333V25.6666H0Z" fill="white"/>
</svg>
