<svg width="159" height="169" viewBox="0 0 159 169" fill="none" xmlns="http://www.w3.org/2000/svg">
<path d="M135 25.6666V17.3333C135 8.16663 127.5 0.666626 118.333 0.666626H51.6667C44.5 0.666626 38.5 5.16663 36.0834 11.5L50.25 25.6666H135ZM118.333 75.6666L135 50.6666V42.3333H66.9167L118.333 93.75V75.6666ZM2.50002 13.25C1.72749 14.0209 1.1146 14.9366 0.696418 15.9448C0.278239 16.9529 0.0629883 18.0336 0.0629883 19.125C0.0629883 20.2164 0.278239 21.2971 0.696418 22.3052C1.1146 23.3133 1.72749 24.229 2.50002 25L51.6667 74.1666V150.667C51.6667 159.833 59.1667 167.333 68.3334 167.333H101.667C110.833 167.333 118.333 159.833 118.333 150.667V140.917L143.917 166.5C145.475 168.058 147.588 168.933 149.792 168.933C151.995 168.933 154.109 168.058 155.667 166.5C157.225 164.942 158.1 162.829 158.1 160.625C158.1 158.421 157.225 156.308 155.667 154.75L14.25 13.25C13.4791 12.4774 12.5633 11.8645 11.5552 11.4464C10.5471 11.0282 9.46643 10.8129 8.37502 10.8129C7.28362 10.8129 6.20293 11.0282 5.19482 11.4464C4.18671 11.8645 3.27097 12.4774 2.50002 13.25Z" fill="white"/>
</svg>
