<svg width="10" height="10" viewBox="0 0 10 10" fill="none" xmlns="http://www.w3.org/2000/svg">
<g clip-path="url(#clip0_27_1556)">
<path d="M6.09369 3.03656H5.25244V6.96359H6.09369C6.5576 6.96359 6.93525 6.60078 6.93525 6.15515V3.84515C6.93525 3.39937 6.5576 3.03656 6.09369 3.03656Z" fill="black"/>
<path d="M8.125 0.3125H1.875C1.01203 0.3125 0.3125 1.01203 0.3125 1.875V8.125C0.3125 8.98797 1.01203 9.6875 1.875 9.6875H8.125C8.98797 9.6875 9.6875 8.98797 9.6875 8.125V1.875C9.6875 1.01203 8.98797 0.3125 8.125 0.3125ZM3.59375 7.65625H2.96875V2.34375H3.59375V7.65625ZM7.65625 6.15516C7.65634 6.35628 7.61446 6.55521 7.53328 6.73922C7.45399 6.91872 7.34023 7.0809 7.19844 7.21656C7.05484 7.35435 6.88632 7.46354 6.70187 7.53828C6.50872 7.61661 6.30218 7.65667 6.09375 7.65625H4.53125V2.34375H6.09375C6.30438 2.34375 6.50891 2.38344 6.70203 2.46156C6.88797 2.53719 7.05516 2.64531 7.19859 2.78328C7.34203 2.92125 7.45453 3.08203 7.53344 3.26031C7.61448 3.44464 7.6563 3.6438 7.65625 3.84516V6.15516Z" fill="black"/>
</g>
<defs>
<clipPath id="clip0_27_1556">
<rect width="10" height="10" fill="white"/>
</clipPath>
</defs>
</svg>
