<svg width="222" height="169" viewBox="0 0 222 169" fill="none" xmlns="http://www.w3.org/2000/svg">
<path d="M103.796 77.3C106.602 73.7891 113 65.2797 113 60.5C113 54.7031 108.297 50 102.5 50C96.7031 50 92 54.7031 92 60.5C92 65.2797 98.3984 73.7891 101.204 77.3C101.877 78.1367 103.123 78.1367 103.796 77.3ZM102.5 64C100.57 64 99 62.4305 99 60.5C99 58.5695 100.57 57 102.5 57C104.43 57 106 58.5695 106 60.5C106 62.4305 104.43 64 102.5 64Z" fill="#000"/>
<path d="M208.413 147.079C212.555 141.924 222 129.432 222 122.415C222 113.905 215.057 107 206.5 107C197.943 107 191 113.905 191 122.415C191 129.432 200.445 141.924 204.587 147.079C205.58 148.307 207.42 148.307 208.413 147.079ZM206.5 127.553C203.65 127.553 201.333 125.249 201.333 122.415C201.333 119.581 203.65 117.277 206.5 117.277C209.35 117.277 211.667 119.581 211.667 122.415C211.667 125.249 209.35 127.553 206.5 127.553Z" fill="#000"/>
<path d="M121 15.7812C121 7.06211 128.062 0 136.781 0H206.219C214.938 0 222 7.06211 222 15.7812V72.5938C222 77.7621 219.514 82.3387 215.688 85.2188V94.6875C215.688 98.1791 212.867 101 209.375 101H203.062C199.571 101 196.75 98.1791 196.75 94.6875V88.375H146.25V94.6875C146.25 98.1791 143.429 101 139.938 101H133.625C130.133 101 127.312 98.1791 127.312 94.6875V85.2188C123.486 82.3387 121 77.7621 121 72.5938V15.7812ZM146.625 30.0238L143.094 44.1875H199.906L196.375 30.0238C195.665 27.2227 193.14 25.25 190.24 25.25H152.76C149.86 25.25 147.335 27.2227 146.645 30.0238H146.625ZM146.25 63.125C146.25 59.6334 143.429 56.8125 139.938 56.8125C136.446 56.8125 133.625 59.6334 133.625 63.125C133.625 66.6166 136.446 69.4375 139.938 69.4375C143.429 69.4375 146.25 66.6166 146.25 63.125ZM203.062 69.4375C206.554 69.4375 209.375 66.6166 209.375 63.125C209.375 59.6334 206.554 56.8125 203.062 56.8125C199.571 56.8125 196.75 59.6334 196.75 63.125C196.75 66.6166 199.571 69.4375 203.062 69.4375Z" fill="#000"/>
<path d="M104 81.0749C115.473 75.0135 138.42 73.8012 138.42 117.443C138.42 171.996 163.185 165.786 184.173 165.786C200.963 165.786 205.72 155.142 206 149.82" stroke="#454545" stroke-width="5" stroke-dasharray="10 10"/>
<path d="M6.84446 45.2727H15.3778L24.3906 67.2614H24.7741L33.7869 45.2727H42.3203V78H35.6087V56.6985H35.337L26.8675 77.8402H22.2972L13.8278 56.6186H13.5561V78H6.84446V45.2727ZM59.0795 78.4794C56.5546 78.4794 54.3813 77.968 52.5596 76.9453C50.7485 75.9119 49.3529 74.4524 48.3728 72.5668C47.3927 70.6705 46.9026 68.4279 46.9026 65.8391C46.9026 63.3143 47.3927 61.0984 48.3728 59.1914C49.3529 57.2844 50.7325 55.7983 52.5116 54.733C54.3014 53.6676 56.4001 53.1349 58.8078 53.1349C60.4271 53.1349 61.9346 53.396 63.3302 53.918C64.7364 54.4293 65.9616 55.2017 67.0056 56.2351C68.0603 57.2685 68.8806 58.5682 69.4665 60.1342C70.0525 61.6896 70.3454 63.5114 70.3454 65.5994V67.4691H49.6192V63.2504H63.9374C63.9374 62.2702 63.7243 61.402 63.2982 60.6456C62.8721 59.8892 62.2808 59.2979 61.5244 58.8718C60.7787 58.435 59.9104 58.2166 58.9197 58.2166C57.8863 58.2166 56.9701 58.4563 56.1711 58.9357C55.3827 59.4045 54.7648 60.0384 54.3174 60.8374C53.8699 61.6257 53.6409 62.5046 53.6302 63.4741V67.4851C53.6302 68.6996 53.854 69.7489 54.3014 70.6332C54.7595 71.5174 55.404 72.1992 56.235 72.6786C57.066 73.158 58.0514 73.3977 59.1913 73.3977C59.9477 73.3977 60.6402 73.2912 61.2687 73.0781C61.8973 72.8651 62.4353 72.5455 62.8827 72.1193C63.3302 71.6932 63.6711 71.1712 63.9055 70.5533L70.2016 70.9688C69.882 72.4815 69.2268 73.8026 68.2361 74.9318C67.2559 76.0504 65.9882 76.924 64.4328 77.5526C62.8881 78.1705 61.1036 78.4794 59.0795 78.4794ZM87.8437 53.4545V58.5682H73.0621V53.4545H87.8437ZM76.4179 47.5739H83.2254V70.4574C83.2254 71.0859 83.3213 71.576 83.5131 71.9276C83.7048 72.2685 83.9711 72.5082 84.3121 72.6467C84.6636 72.7852 85.0684 72.8544 85.5265 72.8544C85.8461 72.8544 86.1657 72.8278 86.4854 72.7745C86.805 72.7106 87.05 72.6626 87.2204 72.6307L88.2911 77.6964C87.9502 77.8029 87.4708 77.9254 86.8529 78.0639C86.235 78.2131 85.4839 78.3036 84.5997 78.3356C82.9591 78.3995 81.5209 78.1811 80.2851 77.6804C79.0599 77.1797 78.1064 76.402 77.4246 75.3473C76.7428 74.2926 76.4072 72.9609 76.4179 71.3523V47.5739Z" fill="white"/>
<path d="M49.343 112.914H38.4553C38.2564 111.505 37.8504 110.254 37.2372 109.161C36.6241 108.05 35.8369 107.106 34.8757 106.327C33.9145 105.548 32.8042 104.951 31.5447 104.537C30.3018 104.123 28.9512 103.915 27.4929 103.915C24.858 103.915 22.5627 104.57 20.6072 105.879C18.6518 107.172 17.1354 109.061 16.0582 111.547C14.9811 114.016 14.4425 117.016 14.4425 120.545C14.4425 124.175 14.9811 127.224 16.0582 129.693C17.152 132.162 18.6766 134.027 20.6321 135.286C22.5876 136.546 24.8497 137.175 27.4183 137.175C28.8601 137.175 30.1941 136.985 31.4205 136.604C32.6634 136.223 33.7654 135.667 34.7266 134.938C35.6877 134.192 36.4832 133.289 37.1129 132.229C37.7592 131.168 38.2067 129.958 38.4553 128.599L49.343 128.649C49.0613 130.986 48.357 133.24 47.2301 135.411C46.1198 137.565 44.62 139.496 42.7308 141.202C40.8582 142.893 38.621 144.235 36.0192 145.229C33.4339 146.207 30.509 146.696 27.2443 146.696C22.7036 146.696 18.6435 145.669 15.0639 143.614C11.5009 141.559 8.68371 138.584 6.61222 134.69C4.55729 130.795 3.52983 126.08 3.52983 120.545C3.52983 114.994 4.57386 110.271 6.66193 106.376C8.75 102.482 11.5838 99.5156 15.1634 97.4773C18.7429 95.4223 22.7699 94.3949 27.2443 94.3949C30.1941 94.3949 32.9285 94.8092 35.4474 95.6378C37.983 96.4664 40.2285 97.6761 42.184 99.267C44.1394 100.841 45.7304 102.772 46.9567 105.059C48.1996 107.346 48.995 109.964 49.343 112.914ZM74.114 146.746C70.2527 146.746 66.9135 145.925 64.0962 144.285C61.2956 142.628 59.1329 140.324 57.6083 137.374C56.0837 134.408 55.3214 130.969 55.3214 127.058C55.3214 123.114 56.0837 119.667 57.6083 116.717C59.1329 113.751 61.2956 111.447 64.0962 109.807C66.9135 108.15 70.2527 107.321 74.114 107.321C77.9753 107.321 81.3062 108.15 84.1069 109.807C86.9241 111.447 89.0951 113.751 90.6197 116.717C92.1443 119.667 92.9066 123.114 92.9066 127.058C92.9066 130.969 92.1443 134.408 90.6197 137.374C89.0951 140.324 86.9241 142.628 84.1069 144.285C81.3062 145.925 77.9753 146.746 74.114 146.746ZM74.1637 138.543C75.9203 138.543 77.387 138.045 78.5636 137.051C79.7402 136.04 80.6268 134.665 81.2234 132.925C81.8365 131.185 82.1431 129.204 82.1431 126.984C82.1431 124.763 81.8365 122.783 81.2234 121.043C80.6268 119.303 79.7402 117.927 78.5636 116.916C77.387 115.905 75.9203 115.4 74.1637 115.4C72.3905 115.4 70.899 115.905 69.6893 116.916C68.4961 117.927 67.5929 119.303 66.9798 121.043C66.3832 122.783 66.0849 124.763 66.0849 126.984C66.0849 129.204 66.3832 131.185 66.9798 132.925C67.5929 134.665 68.4961 136.04 69.6893 137.051C70.899 138.045 72.3905 138.543 74.1637 138.543ZM110.382 95.0909V146H99.7923V95.0909H110.382ZM136.265 146.746C132.338 146.746 128.957 145.95 126.123 144.359C123.306 142.752 121.135 140.482 119.61 137.548C118.086 134.598 117.323 131.11 117.323 127.083C117.323 123.156 118.086 119.709 119.61 116.742C121.135 113.776 123.281 111.464 126.048 109.807C128.833 108.15 132.097 107.321 135.843 107.321C138.361 107.321 140.706 107.727 142.877 108.539C145.065 109.335 146.971 110.536 148.595 112.143C150.235 113.751 151.511 115.773 152.423 118.209C153.334 120.628 153.79 123.462 153.79 126.71V129.619H121.549V123.056H143.822C143.822 121.531 143.49 120.181 142.828 119.004C142.165 117.828 141.245 116.908 140.068 116.245C138.908 115.566 137.558 115.226 136.017 115.226C134.409 115.226 132.984 115.599 131.741 116.344C130.515 117.074 129.553 118.06 128.857 119.303C128.161 120.529 127.805 121.896 127.789 123.404V129.643C127.789 131.533 128.137 133.165 128.833 134.54C129.545 135.916 130.548 136.977 131.84 137.722C133.133 138.468 134.666 138.841 136.439 138.841C137.616 138.841 138.693 138.675 139.671 138.344C140.648 138.012 141.485 137.515 142.181 136.852C142.877 136.189 143.408 135.377 143.772 134.416L153.566 135.062C153.069 137.416 152.05 139.471 150.509 141.227C148.984 142.967 147.012 144.326 144.593 145.304C142.19 146.265 139.414 146.746 136.265 146.746ZM181.009 107.818V115.773H158.016V107.818H181.009ZM163.236 98.6705H173.825V134.267C173.825 135.245 173.975 136.007 174.273 136.554C174.571 137.084 174.985 137.457 175.516 137.673C176.063 137.888 176.692 137.996 177.405 137.996C177.902 137.996 178.399 137.954 178.896 137.871C179.394 137.772 179.775 137.697 180.04 137.648L181.705 145.528C181.175 145.693 180.429 145.884 179.468 146.099C178.507 146.331 177.339 146.472 175.963 146.522C173.411 146.621 171.174 146.282 169.252 145.503C167.346 144.724 165.863 143.514 164.802 141.874C163.741 140.233 163.219 138.161 163.236 135.659V98.6705Z" fill="#000"/>
</svg>
