<svg width="142" height="184" viewBox="0 0 142 184" fill="none" xmlns="http://www.w3.org/2000/svg">
<mask id="mask0_1524_52" style="mask-type:luminance" maskUnits="userSpaceOnUse" x="0" y="0" width="142" height="184">
<path d="M71 175.333C71 175.333 133.5 125.333 133.5 71.1667C133.5 36.65 105.517 8.66669 71 8.66669C36.4833 8.66669 8.5 36.65 8.5 71.1667C8.5 125.333 71 175.333 71 175.333Z" fill="white" stroke="white" stroke-width="16.6667" stroke-linejoin="round"/>
<path d="M71 96.1667C74.283 96.1667 77.5339 95.52 80.5671 94.2637C83.6002 93.0073 86.3562 91.1658 88.6777 88.8444C90.9991 86.5229 92.8406 83.7669 94.097 80.7338C95.3534 77.7006 96 74.4497 96 71.1667C96 67.8836 95.3534 64.6327 94.097 61.5996C92.8406 58.5665 90.9991 55.8105 88.6777 53.489C86.3562 51.1676 83.6002 49.3261 80.5671 48.0697C77.5339 46.8133 74.283 46.1667 71 46.1667C64.3696 46.1667 58.0107 48.8006 53.3223 53.489C48.6339 58.1774 46 64.5363 46 71.1667C46 77.7971 48.6339 84.1559 53.3223 88.8444C58.0107 93.5328 64.3696 96.1667 71 96.1667Z" fill="black" stroke="black" stroke-width="16.6667" stroke-linejoin="round"/>
</mask>
<g mask="url(#mask0_1524_52)">
<path d="M-29 -8H171V192H-29V-8Z" fill="#000"/>
</g>
</svg>
