<svg width="33" height="29" viewBox="0 0 33 29" fill="none" xmlns="http://www.w3.org/2000/svg">
<path d="M32.8 16.1658C32.8 21.4197 30.34 26.0674 26.445 28.8964L25.42 27.886L21.115 23.6425L23.985 20.8135L26.445 23.2383C27.47 21.8238 28.29 20.0052 28.495 18.1865H24.6V14.1451H28.495C28.085 12.3264 27.47 10.7098 26.445 9.09326L23.985 11.5181L21.115 8.68912L23.575 6.26425C22.14 5.25389 20.295 4.4456 18.45 4.24352V8.0829H14.35V4.24352C12.505 4.64767 10.865 5.25389 9.225 6.26425L15.375 12.3264C15.785 12.3264 15.99 12.1244 16.4 12.1244C17.4874 12.1244 18.5302 12.5501 19.2991 13.3081C20.068 14.066 20.5 15.0939 20.5 16.1658C20.5 17.2377 20.068 18.2656 19.2991 19.0235C18.5302 19.7815 17.4874 20.2073 16.4 20.2073C15.3126 20.2073 14.2698 19.7815 13.5009 19.0235C12.732 18.2656 12.3 17.2377 12.3 16.1658C12.3 15.7617 12.3 15.5596 12.505 15.1554L6.355 9.09326C5.33 10.5078 4.51 12.3264 4.305 14.1451H8.2V18.1865H4.305C4.715 20.0052 5.33 21.6218 6.355 23.2383L8.815 20.8135L11.685 23.6425L6.355 28.8964C2.46 26.0674 0 21.4197 0 16.1658C0 11.8784 1.72785 7.76653 4.80345 4.73485C7.87904 1.70318 12.0504 0 16.4 0C20.7495 0 24.921 1.70318 27.9966 4.73485C31.0721 7.76653 32.8 11.8784 32.8 16.1658Z" fill=""/>
</svg>
