<svg width="29" height="29" viewBox="0 0 29 29" fill="none" xmlns="http://www.w3.org/2000/svg">
<path d="M15.7084 8.58038L15.7204 8.58159C16.8774 8.81865 17.9389 9.39102 18.7727 10.2273C19.6083 11.0628 20.1809 12.1248 20.4197 13.282C20.5826 14.0859 20.5822 14.9143 20.4184 15.718C20.1814 16.8755 19.6086 17.9376 18.7715 18.7715L20.4801 20.48C21.6496 19.3098 22.4511 17.8228 22.7856 16.2025C23.0172 15.0789 23.0172 13.9199 22.7856 12.7963C22.455 11.1751 21.6535 9.68758 20.4813 8.51996C19.7117 7.74762 18.7994 7.13206 17.7952 6.70746C17.2832 6.49072 16.7509 6.32557 16.2062 6.21446C16.0407 6.18063 15.8739 6.16251 15.7084 6.13834V2.41667L10.875 7.25001L15.7084 12.0833V8.58038ZM6.70628 17.7915C6.91653 18.2893 7.17994 18.7727 7.48686 19.2294C7.78774 19.6765 8.13574 20.097 8.51878 20.4788C9.28992 21.2502 10.2023 21.866 11.2061 22.2925C11.7197 22.51 12.2549 22.6756 12.7951 22.7855C12.9969 22.8266 13.2035 22.8532 13.4089 22.8798V26.4371L18.2422 21.6038L13.4089 16.7705V20.4317C13.3666 20.4245 13.3219 20.4281 13.2796 20.4184C12.1227 20.1814 11.0612 19.609 10.2274 18.7727C9.66557 18.2121 9.21988 17.5461 8.91583 16.813C8.61177 16.0799 8.45532 15.294 8.45543 14.5004C8.45555 13.7067 8.61222 12.9209 8.91648 12.1878C9.22074 11.4548 9.66662 10.789 10.2286 10.2285L8.51999 8.51876C7.74846 9.2895 7.13302 10.202 6.70749 11.2061C6.26666 12.2482 6.04023 13.3685 6.04169 14.5C6.04092 15.6306 6.26691 16.7498 6.70628 17.7915Z" fill="white"/>
</svg>
