<svg width="19" height="19" viewBox="0 0 19 19" fill="none" xmlns="http://www.w3.org/2000/svg">
<circle cx="9.19" cy="9.19" r="9.19" fill="white"/>
<path d="M9.1875 0C11.6242 0 13.9611 0.967966 15.684 2.69096C17.407 4.41395 18.375 6.75082 18.375 9.1875C18.375 11.6242 17.407 13.9611 15.684 15.684C13.9611 17.407 11.6242 18.375 9.1875 18.375C6.75082 18.375 4.41395 17.407 2.69096 15.684C0.967966 13.9611 0 11.6242 0 9.1875C0 6.75082 0.967966 4.41395 2.69096 2.69096C4.41395 0.967966 6.75082 0 9.1875 0ZM9.1875 8.07319L7.05338 5.93906C6.90561 5.7913 6.70519 5.70828 6.49622 5.70828C6.28724 5.70828 6.08683 5.7913 5.93906 5.93906C5.7913 6.08683 5.70828 6.28724 5.70828 6.49622C5.70828 6.70519 5.7913 6.90561 5.93906 7.05338L8.07319 9.1875L5.93906 11.3216C5.8659 11.3948 5.80786 11.4817 5.76826 11.5773C5.72866 11.6728 5.70828 11.7753 5.70828 11.8788C5.70828 11.9823 5.72866 12.0847 5.76826 12.1803C5.80786 12.2759 5.8659 12.3628 5.93906 12.4359C6.01223 12.5091 6.09909 12.5671 6.19469 12.6067C6.29028 12.6463 6.39275 12.6667 6.49622 12.6667C6.59969 12.6667 6.70215 12.6463 6.79775 12.6067C6.89335 12.5671 6.98021 12.5091 7.05338 12.4359L9.1875 10.3018L11.3216 12.4359C11.3948 12.5091 11.4817 12.5671 11.5773 12.6067C11.6728 12.6463 11.7753 12.6667 11.8788 12.6667C11.9823 12.6667 12.0847 12.6463 12.1803 12.6067C12.2759 12.5671 12.3628 12.5091 12.4359 12.4359C12.5091 12.3628 12.5671 12.2759 12.6067 12.1803C12.6463 12.0847 12.6667 11.9823 12.6667 11.8788C12.6667 11.7753 12.6463 11.6728 12.6067 11.5773C12.5671 11.4817 12.5091 11.3948 12.4359 11.3216L10.3018 9.1875L12.4359 7.05338C12.5091 6.98021 12.5671 6.89335 12.6067 6.79775C12.6463 6.70215 12.6667 6.59969 12.6667 6.49622C12.6667 6.39275 12.6463 6.29028 12.6067 6.19469C12.5671 6.09909 12.5091 6.01223 12.4359 5.93906C12.3628 5.8659 12.2759 5.80786 12.1803 5.76826C12.0847 5.72866 11.9823 5.70828 11.8788 5.70828C11.7753 5.70828 11.6728 5.72866 11.5773 5.76826C11.4817 5.80786 11.3948 5.8659 11.3216 5.93906L9.1875 8.07319Z" fill="#000"/>
</svg>
