<svg width="375" height="812" viewBox="0 0 375 812" fill="none" xmlns="http://www.w3.org/2000/svg">
<path fill-rule="evenodd" clip-rule="evenodd" d="M375 0H0V812H375V0ZM118 307C101.431 307 88 320.431 88 337V476C88 492.569 101.431 506 118 506H257C273.569 506 287 492.569 287 476V337C287 320.431 273.569 307 257 307H118Z" fill="black" fill-opacity="0.21"/>
<path d="M118.95 504.499C100.95 504.499 91.9506 496 91.9509 476" stroke="white" stroke-width="20"/>
<path d="M256.715 504.499C274.715 504.499 283.714 496 283.714 476" stroke="white" stroke-width="20"/>
<path d="M117.95 307.146C99.9499 307.146 90.9506 315.646 90.9509 335.646" stroke="white" stroke-width="20"/>
<path d="M255.38 307.146C273.38 307.146 282.379 315.646 282.379 335.646" stroke="white" stroke-width="20"/>
</svg>
