<svg width="20" height="20" viewBox="0 0 20 20" fill="none" xmlns="http://www.w3.org/2000/svg">
<path d="M5.90909 15.4V18C5.90909 18.5523 6.35681 19 6.90909 19H18C18.5523 19 19 18.5523 19 18V5.6C19 5.04772 18.5523 4.6 18 4.6H14.0909H1M19 8.2H14.0909M3.45455 8.2H5.09091M6.72727 8.2H11.6364M3.45455 11.8H5.09091M6.72727 11.8H11.6364M7.54545 1H2C1.44772 1 1 1.44772 1 2V14.4C1 14.9523 1.44772 15.4 2 15.4H13.0909C13.6432 15.4 14.0909 14.9523 14.0909 14.4V2C14.0909 1.44772 13.6432 1 13.0909 1H7.54545Z" stroke="white" stroke-width="2"/>
</svg>
