<svg width="166" height="128" viewBox="0 0 166 128" fill="none" xmlns="http://www.w3.org/2000/svg">
<path fill-rule="evenodd" clip-rule="evenodd" d="M15.5 0C11.5217 0 7.70644 1.58036 4.8934 4.3934C2.08035 7.20644 0.5 11.0218 0.5 15V112.5C0.5 116.478 2.08035 120.294 4.8934 123.107C7.70645 125.92 11.5218 127.5 15.5 127.5H150.5C154.478 127.5 158.294 125.92 161.107 123.107C163.92 120.294 165.5 116.478 165.5 112.5V103.125C165.5 98.9829 162.142 95.625 158 95.625C153.858 95.625 150.5 98.9829 150.5 103.125V112.5H15.5V15L68 15C72.1421 15 75.5 11.6421 75.5 7.5C75.5 3.35786 72.1421 0 68 0H15.5ZM30.5 48.75C26.3579 48.75 23 52.1079 23 56.25C23 60.3921 26.3579 63.75 30.5 63.75H60.5C64.6421 63.75 68 60.3921 68 56.25C68 52.1079 64.6421 48.75 60.5 48.75H30.5ZM30.5 78.75C26.3579 78.75 23 82.1079 23 86.25C23 90.3921 26.3579 93.75 30.5 93.75H120.5C124.642 93.75 128 90.3921 128 86.25C128 82.1079 124.642 78.75 120.5 78.75H30.5ZM120.5 15C112.216 15 105.5 21.7157 105.5 30C105.5 38.2843 112.216 45 120.5 45C128.784 45 135.5 38.2843 135.5 30C135.5 21.7157 128.784 15 120.5 15ZM142.312 50.5973C147.388 45.2238 150.5 37.9754 150.5 30C150.5 13.4315 137.069 0 120.5 0C103.931 0 90.5 13.4315 90.5 30C90.5 37.4468 93.2133 44.26 97.7052 49.5047C92.8778 51.818 88.9456 54.862 85.2719 58.1964C82.2047 60.9803 81.9751 65.7234 84.7589 68.7906C87.5428 71.8578 92.2859 72.0874 95.3531 69.3036C98.871 66.1106 101.932 63.9152 105.528 62.4352C109.121 60.9567 113.724 60 120.5 60C132.432 60 145.163 67.9473 151.323 79.9875C153.21 83.675 157.729 85.1348 161.416 83.248C165.104 81.3613 166.564 76.8425 164.677 73.155C159.741 63.509 151.717 55.5605 142.312 50.5973Z" fill="#000"/>
</svg>
