<svg width="106" height="132" viewBox="0 0 106 132" fill="none" xmlns="http://www.w3.org/2000/svg">
<path d="M0.333496 66C0.333496 67.746 1.0271 69.4205 2.26171 70.6551C3.49633 71.8897 5.17082 72.5833 6.91683 72.5833H56.8843L41.7427 87.6591C41.1256 88.2711 40.6359 88.9993 40.3016 89.8015C39.9674 90.6037 39.7953 91.4642 39.7953 92.3333C39.7953 93.2024 39.9674 94.0629 40.3016 94.8651C40.6359 95.6673 41.1256 96.3954 41.7427 97.0075C42.3547 97.6245 43.0828 98.1143 43.885 98.4485C44.6873 98.7827 45.5478 98.9548 46.4168 98.9548C47.2859 98.9548 48.1464 98.7827 48.9486 98.4485C49.7509 98.1143 50.479 97.6245 51.091 97.0075L77.4243 70.6741C78.0237 70.048 78.4935 69.3097 78.8068 68.5016C79.4653 66.8988 79.4653 65.1011 78.8068 63.4983C78.4935 62.6902 78.0237 61.9519 77.4243 61.3258L51.091 34.9925C50.4772 34.3786 49.7485 33.8917 48.9465 33.5595C48.1445 33.2273 47.2849 33.0564 46.4168 33.0564C45.5488 33.0564 44.6892 33.2273 43.8872 33.5595C43.0852 33.8917 42.3565 34.3786 41.7427 34.9925C41.1288 35.6063 40.6419 36.335 40.3097 37.137C39.9775 37.939 39.8066 38.7986 39.8066 39.6666C39.8066 40.5347 39.9775 41.3943 40.3097 42.1963C40.6419 42.9983 41.1288 43.727 41.7427 44.3408L56.8843 59.4166H6.91683C5.17082 59.4166 3.49633 60.1102 2.26171 61.3448C1.0271 62.5795 0.333496 64.254 0.333496 66ZM85.9168 0.166626H20.0835C14.8455 0.166626 9.82198 2.24742 6.11814 5.95127C2.41429 9.65511 0.333496 14.6786 0.333496 19.9166V39.6666C0.333496 41.4126 1.0271 43.0871 2.26171 44.3217C3.49633 45.5564 5.17082 46.25 6.91683 46.25C8.66284 46.25 10.3373 45.5564 11.5719 44.3217C12.8066 43.0871 13.5002 41.4126 13.5002 39.6666V19.9166C13.5002 18.1706 14.1938 16.4961 15.4284 15.2615C16.663 14.0269 18.3375 13.3333 20.0835 13.3333H85.9168C87.6628 13.3333 89.3373 14.0269 90.572 15.2615C91.8066 16.4961 92.5002 18.1706 92.5002 19.9166V112.083C92.5002 113.829 91.8066 115.504 90.572 116.738C89.3373 117.973 87.6628 118.667 85.9168 118.667H20.0835C18.3375 118.667 16.663 117.973 15.4284 116.738C14.1938 115.504 13.5002 113.829 13.5002 112.083V92.3333C13.5002 90.5873 12.8066 88.9128 11.5719 87.6782C10.3373 86.4436 8.66284 85.75 6.91683 85.75C5.17082 85.75 3.49633 86.4436 2.26171 87.6782C1.0271 88.9128 0.333496 90.5873 0.333496 92.3333V112.083C0.333496 117.321 2.41429 122.345 6.11814 126.049C9.82198 129.753 14.8455 131.833 20.0835 131.833H85.9168C91.1549 131.833 96.1783 129.753 99.8822 126.049C103.586 122.345 105.667 117.321 105.667 112.083V19.9166C105.667 14.6786 103.586 9.65511 99.8822 5.95127C96.1783 2.24742 91.1549 0.166626 85.9168 0.166626Z" fill="#000"/>
</svg>
