<svg width="88" height="88" viewBox="0 0 88 88" fill="none" xmlns="http://www.w3.org/2000/svg">
<path d="M44 0C55.6695 0 66.8611 4.6357 75.1127 12.8873C83.3643 21.1389 88 32.3305 88 44C88 55.6695 83.3643 66.8611 75.1127 75.1127C66.8611 83.3643 55.6695 88 44 88C32.3305 88 21.1389 83.3643 12.8873 75.1127C4.6357 66.8611 0 55.6695 0 44C0 32.3305 4.6357 21.1389 12.8873 12.8873C21.1389 4.6357 32.3305 0 44 0ZM38.5189 52.6806L28.7446 42.9C28.3942 42.5496 27.9782 42.2716 27.5204 42.082C27.0625 41.8924 26.5718 41.7948 26.0763 41.7948C25.5807 41.7948 25.09 41.8924 24.6322 42.082C24.1744 42.2716 23.7584 42.5496 23.408 42.9C22.7003 43.6077 22.3028 44.5675 22.3028 45.5683C22.3028 46.5691 22.7003 47.5289 23.408 48.2366L35.8537 60.6823C36.2031 61.0345 36.6188 61.314 37.0768 61.5047C37.5347 61.6954 38.0259 61.7936 38.522 61.7936C39.0181 61.7936 39.5093 61.6954 39.9672 61.5047C40.4252 61.314 40.8409 61.0345 41.1903 60.6823L66.9617 34.9046C67.3168 34.5556 67.5993 34.1398 67.7929 33.6812C67.9865 33.2225 68.0873 32.73 68.0896 32.2322C68.092 31.7343 67.9957 31.241 67.8064 30.7805C67.6171 30.3201 67.3385 29.9017 66.9866 29.5494C66.6348 29.1972 66.2167 28.9181 65.7565 28.7282C65.2963 28.5384 64.803 28.4415 64.3052 28.4432C63.8073 28.445 63.3147 28.5452 62.8558 28.7383C62.3969 28.9313 61.9808 29.2133 61.6314 29.568L38.5189 52.6806Z" fill="#000"/>
</svg>
