<svg width="48" height="48" viewBox="0 0 48 48" fill="none" xmlns="http://www.w3.org/2000/svg">
<path fill-rule="evenodd" clip-rule="evenodd" d="M12.9521 4.092C12.1566 4.09279 11.394 4.40949 10.832 4.97245C10.27 5.5354 9.95455 6.29852 9.95508 7.094L9.97508 32.094C9.97534 32.4881 10.0532 32.8782 10.2043 33.2421C10.3554 33.6061 10.5767 33.9367 10.8555 34.2151C11.1344 34.4935 11.4654 34.7142 11.8296 34.8647C12.1938 35.0152 12.584 35.0924 12.9781 35.092L17.7281 35.088C17.8922 35.0879 18.0548 35.0554 18.2064 34.9925C18.358 34.9295 18.4957 34.8373 18.6117 34.7212C18.7277 34.605 18.8196 34.4671 18.8823 34.3154C18.945 34.1637 18.9772 34.0012 18.9771 33.837C18.9771 33.147 19.5351 32.587 20.2261 32.586L27.7261 32.579C28.4161 32.579 28.9761 33.138 28.9761 33.829C28.9763 33.9932 29.0089 34.1556 29.072 34.3072C29.1351 34.4588 29.2273 34.5964 29.3436 34.7123C29.4599 34.8282 29.5978 34.92 29.7496 34.9826C29.9013 35.0452 30.0639 35.0773 30.2281 35.077L34.9781 35.074C35.372 35.0736 35.7621 34.9956 36.1259 34.8445C36.4897 34.6934 36.8202 34.4721 37.0985 34.1932C37.3768 33.9143 37.5975 33.5834 37.7479 33.2193C37.8983 32.8552 37.9755 32.465 37.9751 32.071L37.9551 7.071C37.9548 6.67695 37.8769 6.28681 37.7259 5.92287C37.5748 5.55893 37.3535 5.22831 37.0746 4.94991C36.7958 4.67151 36.4648 4.45077 36.1006 4.30031C35.7364 4.14985 35.3461 4.07261 34.9521 4.073L12.9521 4.092V4.092ZM32.9561 8.075L14.9561 8.09L14.9701 26.09L32.9701 26.075L32.9561 8.075V8.075ZM15.9731 29.59C15.9731 29.3248 16.0784 29.0704 16.266 28.8829C16.4535 28.6954 16.7079 28.59 16.9731 28.59L20.9731 28.586C21.2383 28.5859 21.4927 28.6911 21.6803 28.8785C21.868 29.066 21.9734 29.3203 21.9736 29.5855C21.9737 29.8507 21.8685 30.1051 21.681 30.2928C21.4936 30.4804 21.2393 30.5859 20.9741 30.586L16.9741 30.589C16.709 30.589 16.4548 30.4838 16.2673 30.2965C16.0798 30.1091 15.9743 29.855 15.9741 29.59H15.9731ZM26.9731 28.581C26.7079 28.5811 26.4536 28.6866 26.2661 28.8742C26.0787 29.0619 25.9734 29.3163 25.9736 29.5815C25.9737 29.8467 26.0792 30.101 26.2668 30.2885C26.4545 30.4759 26.7089 30.5811 26.9741 30.581L30.9741 30.578C31.1054 30.5779 31.2354 30.5519 31.3567 30.5015C31.478 30.4511 31.5881 30.3774 31.6809 30.2844C31.7737 30.1914 31.8472 30.0811 31.8973 29.9598C31.9475 29.8384 31.9732 29.7083 31.9731 29.577C31.9729 29.4457 31.947 29.3157 31.8966 29.1944C31.8462 29.0731 31.7724 28.963 31.6795 28.8702C31.5865 28.7774 31.4762 28.7039 31.3548 28.6537C31.2335 28.6036 31.1034 28.5779 30.9721 28.578L26.9721 28.581H26.9731Z" fill="#000"/>
<path d="M27.9641 18.334C27.9661 20.468 26.2071 22.145 23.9671 22.147C21.7271 22.149 19.9661 20.474 19.9641 18.341C19.9621 16.207 23.9591 11.481 23.9591 11.481C23.9591 11.481 27.9621 16.353 27.9641 18.334V18.334Z" fill="#000"/>
<path fill-rule="evenodd" clip-rule="evenodd" d="M27.9761 33.08L19.9761 33.086L19.9841 42.086L27.9841 42.079L27.9761 33.079V33.08ZM17.9751 31.087L17.9851 44.087L29.9851 44.077L29.9751 31.077L17.9751 31.087V31.087Z" fill="#000"/>
<path d="M25.98 38.08C25.9805 38.6105 25.7703 39.1194 25.3956 39.4948C25.0209 39.8703 24.5124 40.0815 23.982 40.082C23.7193 40.0823 23.4592 40.0308 23.2165 39.9305C22.9737 39.8303 22.7531 39.6832 22.5672 39.4976C22.1917 39.1229 21.9805 38.6145 21.98 38.084C21.9796 37.5536 22.1899 37.0447 22.5647 36.6694C22.9395 36.294 23.448 36.0829 23.9785 36.0825C24.5089 36.0821 25.0178 36.2925 25.3931 36.6672C25.7685 37.042 25.9796 37.5506 25.98 38.081V38.08Z" fill="#000"/>
</svg>
