<svg width="16" height="36" viewBox="0 0 16 36" fill="none" xmlns="http://www.w3.org/2000/svg">
<path d="M11.375 28.125C11.3747 28.7437 11.2043 29.3503 10.8825 29.8787C10.5607 30.4071 10.0999 30.8369 9.55031 31.1211C9.00078 31.4053 8.3837 31.5329 7.76651 31.4901C7.14932 31.4473 6.55577 31.2357 6.05072 30.8784C5.54567 30.5211 5.14856 30.0318 4.90277 29.4641C4.65699 28.8963 4.57199 28.2719 4.65707 27.6591C4.74214 27.0463 4.99402 26.4687 5.38518 25.9894C5.77633 25.5101 6.29171 25.1475 6.875 24.9412V14.625C6.875 14.3266 6.99353 14.0405 7.20451 13.8295C7.41548 13.6185 7.70163 13.5 8 13.5C8.29837 13.5 8.58452 13.6185 8.7955 13.8295C9.00648 14.0405 9.125 14.3266 9.125 14.625V24.9412C9.7833 25.174 10.3532 25.6052 10.7562 26.1754C11.1592 26.7456 11.3754 27.4268 11.375 28.125Z" fill=""/>
<path d="M2.375 5.625C2.375 4.13316 2.96764 2.70242 4.02253 1.64752C5.07742 0.592632 6.50816 0 8 0C9.49185 0 10.9226 0.592632 11.9775 1.64752C13.0324 2.70242 13.625 4.13316 13.625 5.625V22.6125C14.7103 23.7201 15.4443 25.1235 15.7352 26.6467C16.0261 28.1698 15.8608 29.745 15.2601 31.1746C14.6594 32.6042 13.6499 33.8246 12.3584 34.6828C11.0669 35.541 9.55069 35.9989 8 35.9989C6.44932 35.9989 4.93315 35.541 3.64161 34.6828C2.35007 33.8246 1.34065 32.6042 0.739924 31.1746C0.1392 29.745 -0.0260869 28.1698 0.264788 26.6467C0.555662 25.1235 1.28975 23.7201 2.375 22.6125V5.625ZM8 2.25C7.1049 2.25 6.24645 2.60558 5.61352 3.23851C4.98058 3.87145 4.625 4.72989 4.625 5.625V23.5958L4.24925 23.9333C3.40004 24.6927 2.80144 25.6921 2.53266 26.7991C2.26389 27.9062 2.33761 29.0688 2.74407 30.1331C3.15053 31.1974 3.87057 32.1131 4.8089 32.7592C5.74724 33.4053 6.85963 33.7512 7.99888 33.7512C9.13812 33.7512 10.2505 33.4053 11.1889 32.7592C12.1272 32.1131 12.8472 31.1974 13.2537 30.1331C13.6601 29.0688 13.7339 27.9062 13.4651 26.7991C13.1963 25.6921 12.5977 24.6927 11.7485 23.9333L11.375 23.5958V5.625C11.375 4.72989 11.0194 3.87145 10.3865 3.23851C9.75355 2.60558 8.89511 2.25 8 2.25Z" fill=""/>
</svg>
