<svg width="22" height="22" viewBox="0 0 22 22" fill="none" xmlns="http://www.w3.org/2000/svg">
<path d="M6.875 7.5625C6.875 3.333 10.208 0 14.4375 0C18.667 0 22 3.333 22 7.5625C22 11.792 18.667 15.125 14.4375 15.125C13.7421 15.1334 13.0486 15.0502 12.375 14.8775V15.125C12.375 15.4897 12.2301 15.8394 11.9723 16.0973C11.7144 16.3551 11.3647 16.5 11 16.5H9.625V17.875C9.625 18.2397 9.48013 18.5894 9.22227 18.8473C8.96441 19.1051 8.61467 19.25 8.25 19.25H6.875V19.9375C6.875 20.4845 6.6577 21.0091 6.27091 21.3959C5.88411 21.7827 5.35951 22 4.8125 22H2.0625C1.51549 22 0.990886 21.7827 0.604092 21.3959C0.217299 21.0091 0 20.4845 0 19.9375V17.7568C0 17.2095 0.21725 16.6842 0.605 16.2992L6.8475 10.0554C7.03175 9.87112 7.1225 9.54938 7.04275 9.17813C6.93021 8.64698 6.87398 8.10544 6.875 7.5625ZM17.875 5.5C17.875 5.13533 17.7301 4.78559 17.4723 4.52773C17.2144 4.26987 16.8647 4.125 16.5 4.125C16.1353 4.125 15.7856 4.26987 15.5277 4.52773C15.2699 4.78559 15.125 5.13533 15.125 5.5C15.125 5.86467 15.2699 6.21441 15.5277 6.47227C15.7856 6.73013 16.1353 6.875 16.5 6.875C16.8647 6.875 17.2144 6.73013 17.4723 6.47227C17.7301 6.21441 17.875 5.86467 17.875 5.5Z" fill="#000"/>
</svg>
