<svg width="24" height="19" viewBox="0 0 24 19" fill="none" xmlns="http://www.w3.org/2000/svg">
<path d="M8 15.5455C8 15.0777 7.82407 14.6728 7.47222 14.331C7.12037 13.9891 6.7037 13.8182 6.22222 13.8182C5.74074 13.8182 5.32407 13.9891 4.97222 14.331C4.62037 14.6728 4.44444 15.0777 4.44444 15.5455C4.44444 16.0133 4.62037 16.4181 4.97222 16.7599C5.32407 17.1018 5.74074 17.2727 6.22222 17.2727C6.7037 17.2727 7.12037 17.1018 7.47222 16.7599C7.82407 16.4181 8 16.0133 8 15.5455ZM2.66667 8.23153C2.66667 8.45512 2.84792 8.63636 3.0715 8.63636H6.27273C7.22667 8.63636 8 7.86304 8 6.90909C8 5.95514 7.22667 5.18182 6.27273 5.18182H5.80556C5.68519 5.18182 5.58333 5.2223 5.5 5.30327L2.79167 7.93466C2.70833 8.01562 2.66667 8.11458 2.66667 8.23153ZM20.4444 15.5455C20.4444 15.0777 20.2685 14.6728 19.9167 14.331C19.5648 13.9891 19.1481 13.8182 18.6667 13.8182C18.1852 13.8182 17.7685 13.9891 17.4167 14.331C17.0648 14.6728 16.8889 15.0777 16.8889 15.5455C16.8889 16.0133 17.0648 16.4181 17.4167 16.7599C17.7685 17.1018 18.1852 17.2727 18.6667 17.2727C19.1481 17.2727 19.5648 17.1018 19.9167 16.7599C20.2685 16.4181 20.4444 16.0133 20.4444 15.5455ZM24 0.863636V14.6818C24 14.8168 23.9815 14.936 23.9444 15.0394C23.9074 15.1429 23.8449 15.2261 23.7569 15.2891C23.669 15.352 23.5926 15.4038 23.5278 15.4442C23.463 15.4847 23.3542 15.5117 23.2014 15.5252C23.0486 15.5387 22.9444 15.5477 22.8889 15.5522C22.8333 15.5567 22.7153 15.5567 22.5347 15.5522C22.3621 15.5479 22.2238 15.6857 22.2094 15.8578C22.1409 16.678 21.7979 17.3881 21.1806 17.9879C20.4861 18.6626 19.6481 19 18.6667 19C17.6852 19 16.8472 18.6626 16.1528 17.9879C16.137 17.9726 16.1214 17.9572 16.106 17.9417C15.0664 16.8985 13.9172 15.5455 12.4444 15.5455C10.9717 15.5455 9.82246 16.8985 8.78289 17.9417C8.76748 17.9572 8.75188 17.9726 8.73611 17.9879C8.04167 18.6626 7.2037 19 6.22222 19C5.24074 19 4.40278 18.6626 3.70833 17.9879C3.23805 17.531 2.92701 17.0101 2.77521 16.4253C2.65186 15.9502 2.2687 15.5455 1.77778 15.5455C1.75 15.5455 1.64583 15.5477 1.46528 15.5522C1.28472 15.5567 1.16667 15.5567 1.11111 15.5522C1.05556 15.5477 0.951389 15.5387 0.798611 15.5252C0.645833 15.5117 0.537037 15.4847 0.472222 15.4442C0.407407 15.4038 0.331019 15.352 0.243056 15.2891C0.155093 15.2261 0.0925926 15.1429 0.0555556 15.0394C0.0185185 14.936 0 14.8168 0 14.6818C0 14.4479 0.087963 14.2455 0.263889 14.0746C0.538644 13.8076 0.888889 13.5076 0.888889 13.1245V9.5C0.888889 9.42803 0.886574 9.2706 0.881944 9.0277C0.877315 8.7848 0.877315 8.61387 0.881944 8.51491C0.886574 8.41596 0.898148 8.26077 0.916667 8.04936C0.935185 7.83795 0.965278 7.67152 1.00694 7.55007C1.04861 7.42862 1.11343 7.29143 1.20139 7.13849C1.28935 6.98556 1.39352 6.85062 1.51389 6.73366L4.26389 4.06179C4.43982 3.89086 4.67361 3.74692 4.96528 3.62997C5.25694 3.51302 5.52778 3.45455 5.77778 3.45455C7.00508 3.45455 8 2.45962 8 1.23232V0.863636C8 0.629735 8.08796 0.42732 8.26389 0.256392C8.43981 0.085464 8.64815 0 8.88889 0H23.1111C23.3519 0 23.5602 0.085464 23.7361 0.256392C23.912 0.42732 24 0.629735 24 0.863636Z" fill="white"/>
</svg>
