<svg width="29" height="29" viewBox="0 0 29 29" fill="none" xmlns="http://www.w3.org/2000/svg">
<path d="M14.5 0C6.63955 0 0 6.63955 0 14.5C0 22.3605 6.63955 29 14.5 29C22.3605 29 29 22.3605 29 14.5C29 6.63955 22.3605 0 14.5 0ZM14.5 7.25C17.0042 7.25 18.85 9.0944 18.85 11.6C18.85 14.1056 17.0042 15.95 14.5 15.95C11.9973 15.95 10.15 14.1056 10.15 11.6C10.15 9.0944 11.9973 7.25 14.5 7.25ZM7.0963 21.4194C8.39695 19.5054 10.5662 18.2294 13.05 18.2294H15.95C18.4353 18.2294 20.6031 19.5054 21.9037 21.4194C20.0506 23.403 17.4218 24.65 14.5 24.65C11.5782 24.65 8.9494 23.403 7.0963 21.4194Z" fill="#000"/>
</svg>
