<svg width="22" height="20" viewBox="0 0 22 20" fill="none" xmlns="http://www.w3.org/2000/svg">
<path d="M3.36738 4.125C3.36738 3.03098 3.81084 1.98177 4.60022 1.20818C5.38959 0.434597 6.46022 0 7.57656 0C8.69291 0 9.76353 0.434597 10.5529 1.20818C11.3423 1.98177 11.7857 3.03098 11.7857 4.125C11.7857 5.21902 11.3423 6.26823 10.5529 7.04182C9.76353 7.8154 8.69291 8.25 7.57656 8.25C6.46022 8.25 5.38959 7.8154 4.60022 7.04182C3.81084 6.26823 3.36738 5.21902 3.36738 4.125ZM13.3164 6.375C13.3164 5.93179 13.4054 5.49292 13.5785 5.08344C13.7516 4.67397 14.0053 4.30191 14.325 3.98851C14.6448 3.67512 15.0245 3.42652 15.4423 3.25691C15.8601 3.0873 16.308 3 16.7602 3C17.2125 3 17.6603 3.0873 18.0781 3.25691C18.496 3.42652 18.8756 3.67512 19.1954 3.98851C19.5152 4.30191 19.7689 4.67397 19.942 5.08344C20.115 5.49292 20.2041 5.93179 20.2041 6.375C20.2041 7.27011 19.8413 8.12855 19.1954 8.76149C18.5496 9.39442 17.6736 9.75 16.7602 9.75C15.8469 9.75 14.9709 9.39442 14.325 8.76149C13.6792 8.12855 13.3164 7.27011 13.3164 6.375ZM0.306152 16.875C0.306152 14.9853 1.07214 13.1731 2.43561 11.8369C3.79907 10.5007 5.64833 9.75 7.57656 9.75C9.50479 9.75 11.354 10.5007 12.7175 11.8369C14.081 13.1731 14.847 14.9853 14.847 16.875V16.878L14.8459 16.997C14.8438 17.1242 14.8087 17.2487 14.7439 17.3589C14.6791 17.4691 14.5867 17.5614 14.4755 17.627C12.3931 18.856 10.0074 19.5036 7.57656 19.5C5.05411 19.5 2.69289 18.816 0.678601 17.627C0.567225 17.5615 0.47469 17.4693 0.40971 17.3591C0.34473 17.2489 0.309444 17.1243 0.307173 16.997L0.306152 16.875ZM16.3776 16.878L16.3766 17.022C16.3709 17.3553 16.2896 17.6832 16.1388 17.982C17.9201 18.0897 19.6994 17.7416 21.3021 16.972C21.426 16.9126 21.5313 16.8215 21.6067 16.7083C21.6822 16.5951 21.725 16.4641 21.7306 16.329C21.7667 15.4902 21.5811 14.6566 21.1918 13.9088C20.8025 13.1609 20.2228 12.5243 19.5088 12.0605C18.7947 11.5967 17.9706 11.3215 17.1161 11.2615C16.2617 11.2015 15.4059 11.3587 14.6317 11.718C15.7676 13.2066 16.3799 15.0162 16.3766 16.875V16.878H16.3776Z" fill="#000"/>
</svg>
